<svg width="20" height="21" viewBox="0 0 20 21" fill="none" xmlns="http://www.w3.org/2000/svg">
<path d="M19.65 0.739998C19.541 0.646454 19.4131 0.577491 19.2751 0.537802C19.137 0.498113 18.992 0.48863 18.85 0.509998L5.85 2.51C5.61326 2.54592 5.39727 2.66559 5.24129 2.84726C5.0853 3.02894 4.99969 3.26055 5 3.5V13.85C4.53277 13.6218 4.01999 13.5021 3.5 13.5C2.80777 13.5 2.13108 13.7053 1.55551 14.0899C0.979934 14.4744 0.53133 15.0211 0.266423 15.6606C0.00151649 16.3001 -0.0677952 17.0039 0.0672531 17.6828C0.202301 18.3617 0.535644 18.9854 1.02513 19.4749C1.51461 19.9644 2.13825 20.2977 2.81719 20.4327C3.49612 20.5678 4.19985 20.4985 4.83939 20.2336C5.47894 19.9687 6.02556 19.5201 6.41015 18.9445C6.79473 18.3689 7 17.6922 7 17V9.36L18 7.67V11.85C17.5328 11.6218 17.02 11.5021 16.5 11.5C15.8078 11.5 15.1311 11.7053 14.5555 12.0899C13.9799 12.4744 13.5313 13.0211 13.2664 13.6606C13.0015 14.3001 12.9322 15.0039 13.0673 15.6828C13.2023 16.3617 13.5356 16.9854 14.0251 17.4749C14.5146 17.9644 15.1383 18.2977 15.8172 18.4327C16.4961 18.5678 17.1999 18.4985 17.8394 18.2336C18.4789 17.9687 19.0256 17.5201 19.4101 16.9445C19.7947 16.3689 20 15.6922 20 15V1.5C20 1.35556 19.9687 1.21283 19.9083 1.08163C19.8479 0.950435 19.7598 0.833884 19.65 0.739998ZM3.5 18.5C3.20333 18.5 2.91332 18.412 2.66665 18.2472C2.41997 18.0824 2.22771 17.8481 2.11418 17.574C2.00065 17.2999 1.97095 16.9983 2.02882 16.7074C2.0867 16.4164 2.22956 16.1491 2.43934 15.9393C2.64912 15.7296 2.91639 15.5867 3.20737 15.5288C3.49834 15.4709 3.79994 15.5006 4.07403 15.6142C4.34812 15.7277 4.58238 15.92 4.74721 16.1666C4.91203 16.4133 5 16.7033 5 17C5 17.3978 4.84197 17.7794 4.56066 18.0607C4.27936 18.342 3.89783 18.5 3.5 18.5ZM16.5 16.5C16.2033 16.5 15.9133 16.412 15.6666 16.2472C15.42 16.0824 15.2277 15.8481 15.1142 15.574C15.0007 15.2999 14.9709 14.9983 15.0288 14.7074C15.0867 14.4164 15.2296 14.1491 15.4393 13.9393C15.6491 13.7296 15.9164 13.5867 16.2074 13.5288C16.4983 13.4709 16.7999 13.5006 17.074 13.6142C17.3481 13.7277 17.5824 13.92 17.7472 14.1666C17.912 14.4133 18 14.7033 18 15C18 15.3978 17.842 15.7794 17.5607 16.0607C17.2794 16.342 16.8978 16.5 16.5 16.5ZM18 5.64L7 7.33V4.33L18 2.67V5.64Z" fill="#3F3F3F"/>
</svg>
