<svg width="18" height="18" viewBox="0 0 18 18" fill="none" xmlns="http://www.w3.org/2000/svg">
<path d="M17.5822 16.3361L14.3265 13.1067C15.5903 11.531 16.2023 9.53097 16.0367 7.51787C15.8711 5.50477 14.9405 3.63162 13.4363 2.28358C11.932 0.935538 9.96843 0.215072 7.94929 0.270323C5.93015 0.325574 4.00891 1.15234 2.58063 2.58063C1.15234 4.00891 0.325574 5.93015 0.270323 7.94929C0.215072 9.96844 0.935538 11.932 2.28358 13.4363C3.63162 14.9405 5.50477 15.8711 7.51787 16.0367C9.53097 16.2023 11.531 15.5903 13.1067 14.3265L16.3361 17.5559C16.4177 17.6382 16.5148 17.7034 16.6217 17.748C16.7286 17.7926 16.8433 17.8155 16.9592 17.8155C17.075 17.8155 17.1897 17.7926 17.2967 17.748C17.4036 17.7034 17.5007 17.6382 17.5822 17.5559C17.7404 17.3923 17.8288 17.1736 17.8288 16.946C17.8288 16.7184 17.7404 16.4997 17.5822 16.3361V16.3361ZM8.18367 14.3265C6.96872 14.3265 5.78106 13.9663 4.77088 13.2913C3.76069 12.6163 2.97334 11.6569 2.5084 10.5344C2.04347 9.41198 1.92182 8.17685 2.15884 6.98525C2.39586 5.79366 2.98092 4.6991 3.84001 3.84001C4.6991 2.98092 5.79366 2.39586 6.98525 2.15884C8.17685 1.92182 9.41197 2.04347 10.5344 2.5084C11.6569 2.97334 12.6163 3.76069 13.2913 4.77088C13.9663 5.78106 14.3265 6.96872 14.3265 8.18367C14.3265 9.81285 13.6793 11.3753 12.5273 12.5273C11.3753 13.6793 9.81285 14.3265 8.18367 14.3265V14.3265Z" fill="#333333"/>
</svg>
