<svg width="29" height="29" viewBox="0 0 29 29" fill="none" xmlns="http://www.w3.org/2000/svg">
<path d="M13.1515 4.63371L24.3117 11.0341V11.1265C24.9114 11.4736 25.4093 11.9722 25.7554 12.5724C26.1015 13.1727 26.2837 13.8533 26.2837 14.5462C26.2837 15.2391 26.1015 15.9198 25.7554 16.52C25.4093 17.1202 24.9114 17.6188 24.3117 17.9659L13.1515 24.3663C12.5509 24.7133 11.8696 24.8965 11.1759 24.8977C10.128 24.8977 9.12305 24.4814 8.38207 23.7405C7.64109 22.9995 7.22481 21.9945 7.22481 20.9466V8.09962C7.217 7.40232 7.39387 6.71537 7.73747 6.10855C8.08107 5.50172 8.57915 4.99665 9.18112 4.64462C9.78309 4.29259 10.4675 4.10615 11.1648 4.10423C11.8622 4.10232 12.5476 4.285 13.1515 4.63371Z" fill="#333333"/>
</svg>
